<?xml version="1.0" encoding="UTF-8"?>
<svg width="38px" height="31px" viewBox="0 0 38 31" version="1.1" xmlns="http://www.w3.org/2000/svg" xmlns:xlink="http://www.w3.org/1999/xlink">
    <!-- Generator: Sketch 52.6 (67491) - http://www.bohemiancoding.com/sketch -->
    <title>ic_map</title>
    <desc>Created with Sketch.</desc>
    <g id="Release-3---P" stroke="none" stroke-width="1" fill="none" fill-rule="evenodd">
        <g id="TREE-GALLERY" transform="translate(-58.000000, -540.000000)" fill="#000000">
            <g id="Map" transform="translate(15.000000, 537.000000)">
                <g id="ic_map" transform="translate(43.000000, 3.000000)">
                    <path d="M24.8545673,0.650691106 L12.7709588,5.11846425 L0.137469952,0.44906851 L0.137469952,25.596905 L12.4822716,30.1586164 L12.5785003,30.1952751 L12.8740611,30.1929835 L24.8522763,25.7985276 L37.3918269,30.4335563 L37.3918269,5.28801082 L24.8545673,0.650691106 Z M12.195876,28.8732719 L1.24410321,24.8247823 L1.24410321,2.03684631 L12.195876,6.08533654 L12.195876,28.8732719 Z M13.3025093,6.06700721 L24.3001055,2.03455529 L24.3001055,24.8247823 L13.3025093,28.8893102 L13.3025093,6.06700721 Z M36.2851937,28.8457785 L25.4067381,24.8224907 L25.4067381,2.03684631 L36.2851937,6.05784255 L36.2851937,28.8457785 Z" id="Shape" stroke="#000000" stroke-width="0.2"></path>
                    <path d="M2.10558158,20.6525694 L2.09412531,19.7361031 C2.3828125,19.7338115 2.66462605,19.7040264 2.92352764,19.6490385 L3.11140354,20.5471755 C2.79293134,20.6136191 2.45383879,20.6479868 2.10558158,20.6525694 L2.10558158,20.6525694 Z M4.09431355,20.2149566 L3.69106836,19.3924279 C3.93164063,19.2732873 4.14700992,19.1243616 4.33488582,18.947942 L4.96495658,19.6123798 C4.71063702,19.8506611 4.41736779,20.0545747 4.09431355,20.2149566 L4.09431355,20.2149566 Z M5.61335608,18.7806865 L4.81603094,18.3247449 C4.94433623,18.1025014 5.04972957,17.8481824 5.13221154,17.5732425 L6.01201923,17.8344351 C5.90891691,18.1781103 5.776029,18.4965819 5.61335608,18.7806865 L5.61335608,18.7806865 Z M6.26633879,16.961501 L5.39798678,16.6705228 C5.50338012,16.3520506 5.62252133,16.0519083 5.75082662,15.7678032 L6.58710201,16.143555 C6.4702524,16.4001656 6.36256746,16.6751055 6.26633879,16.961501 L6.26633879,16.961501 Z M32.378756,16.7598785 C32.2825268,16.4643176 32.1862981,16.1664663 32.0923604,15.8686151 L32.9675855,15.5982572 C33.0592321,15.8869444 33.1531704,16.1802136 33.249399,16.4711913 L32.378756,16.7598785 Z M20.973332,16.3910003 L20.6640251,15.5272309 C20.8954327,15.444749 21.1657906,15.3233173 21.4636418,15.1766827 L21.869178,15.9969204 C21.5346681,16.1618843 21.2322342,16.2970627 20.973332,16.3910003 L20.973332,16.3910003 Z M19.7200647,16.37038 C19.5436445,16.2741513 19.2343376,16.1687574 18.9341947,16.0702377 L19.2251729,15.1995941 C19.6398738,15.3393556 19.930852,15.4401669 20.1622596,15.5661806 L19.7200647,16.37038 Z M18.0452224,15.7609301 C17.7679914,15.6578272 17.4701396,15.5363956 17.160832,15.3943436 L17.5457479,14.5626502 C17.8344351,14.6955382 18.109375,14.8078051 18.3659856,14.9040338 L18.0452224,15.7609301 Z M22.707745,15.5615986 L22.2701322,14.7573992 C22.5290338,14.6153472 22.7993917,14.466421 23.0720406,14.3106223 L23.5234001,15.1079474 C23.2461686,15.2637473 22.9712287,15.419546 22.707745,15.5615986 L22.707745,15.5615986 Z M6.98576458,15.364558 L6.19302148,14.9040338 C6.36485848,14.6107646 6.54356971,14.3381157 6.72686298,14.0883788 L7.4646181,14.6313849 C7.29965415,14.8559195 7.13927284,15.0987833 6.98576458,15.364558 L6.98576458,15.364558 Z M31.8197115,14.9796421 L31.5585189,14.0883788 L32.4383266,13.8317682 L32.6995192,14.7184495 L31.8197115,14.9796421 Z M16.3016453,14.9475661 C16.0381611,14.7917668 15.7655122,14.6176382 15.4905723,14.4205983 L16.0244138,13.6759689 C16.2741513,13.8569712 16.5215972,14.0150615 16.7621695,14.1548224 L16.3016453,14.9475661 Z M24.3298905,14.6474232 L23.8739483,13.8523891 L24.6827297,13.3941559 L25.1340892,14.1914811 L24.3298905,14.6474232 Z M8.01908053,13.9577825 L7.34776908,13.3345853 C7.57459406,13.0917215 7.81516691,12.8626055 8.06261283,12.6564002 L8.64686027,13.3620793 C8.44294607,13.5339169 8.22986779,13.7309569 8.01908053,13.9577825 L8.01908053,13.9577825 Z M14.7321968,13.8180215 C14.6451322,13.7424132 14.5580676,13.6645132 14.4732946,13.5843223 C14.3312426,13.453726 14.1914811,13.3345853 14.0540117,13.2246094 L14.6199292,12.505183 C14.7757285,12.6289063 14.9361104,12.7640852 15.0987833,12.9153018 C15.1766827,12.9886191 15.254582,13.0596454 15.332482,13.1283801 L14.7321968,13.8180215 Z M25.9359976,13.7469952 L25.5006758,12.9405048 C25.814566,12.7709588 26.1009615,12.6243242 26.3575721,12.5097656 L26.7356143,13.34375 C26.4973331,13.4514349 26.2269758,13.5911959 25.9359976,13.7469952 L25.9359976,13.7469952 Z M31.313364,13.288762 C31.2240084,13.1123424 31.0773738,12.9817455 30.8642955,12.8855168 L31.2400467,12.0492414 C31.6432919,12.2325347 31.9434348,12.5074746 32.1290191,12.8694785 L31.313364,13.288762 Z M27.5375227,13.0596454 L27.2969498,12.1752551 C27.585637,12.0973558 27.9018176,12.0217474 28.2294545,11.9575948 L28.4035831,12.8557318 C28.0988582,12.9175934 27.8055889,12.9863281 27.5375227,13.0596454 L27.5375227,13.0596454 Z M9.33879207,12.8786432 L8.88514152,12.0813175 C9.1417521,11.9369739 9.51750271,11.7559722 9.85659585,11.7238956 L10.0421801,12.6243242 L9.93907723,12.6380709 C9.83826652,12.6472356 9.62518765,12.7159708 9.33879207,12.8786432 L9.33879207,12.8786432 Z M13.3506236,12.7595026 C13.1008867,12.6243242 12.8442761,12.5235123 12.5922476,12.4547776 L12.8305288,11.5703873 C13.1512921,11.6574519 13.4720553,11.7857572 13.7836538,11.9530122 L13.3506236,12.7595026 Z M29.2719351,12.7297175 L29.1894531,11.8178338 C29.3956583,11.7995045 29.606445,11.7949219 29.7989035,11.7903393 C29.9317909,11.7903393 30.0646782,11.7949219 30.1906925,11.8040865 L30.1219578,12.7182619 C30.0119818,12.7090972 29.8974232,12.7113882 29.7874473,12.7068056 C29.6179013,12.7045146 29.4460637,12.7136792 29.2719351,12.7297175 L29.2719351,12.7297175 Z M10.7913915,11.5268556 C11.1419398,11.4604114 11.4466647,11.4283353 11.7536806,11.4283353 L11.7995045,11.8865685 L11.7857572,12.3448017 C11.5062353,12.3425107 11.2564978,12.3700047 10.9678111,12.4272837 L10.7913915,11.5268556 Z" id="Shape"></path>
                    <polygon id="Shape" points="34.4041466 17.9512847 33.7557465 17.3028846 32.630784 18.4301382 31.5035309 17.3028846 30.8528392 17.9512847 31.9823845 19.0785383 30.8528392 20.2057919 31.5035309 20.854192 32.630784 19.7269378 33.7557465 20.854192 34.4041466 20.2057919 33.276893 19.0785383"></polygon>
                </g>
            </g>
        </g>
    </g>
</svg>