<?xml version="1.0" encoding="UTF-8"?>
<svg width="291px" height="311px" viewBox="0 0 291 311" version="1.1" xmlns="http://www.w3.org/2000/svg" xmlns:xlink="http://www.w3.org/1999/xlink">
    <!-- Generator: Sketch 52.6 (67491) - http://www.bohemiancoding.com/sketch -->
    <title>Combined Shape</title>
    <desc>Created with Sketch.</desc>
    <defs>
        <path d="M47.4133858,415 L47.4133858,327 L60.4055118,327 L60.4055118,415 L155.681102,415 L155.681102,427 L47.4133858,427 L47.4133858,415 Z M304.007874,415 L304.007874,327 L317,327 L317,415 L317,427 L208.732283,427 L208.732283,415 L304.007874,415 Z M317,144 L317,232 L304.007874,232 L304.007874,144 L208.732283,144 L208.732283,132 L317,132 L317,144 Z M54.992126,144 L54.992126,232 L42,232 L42,144 L42,132 L150.267717,132 L150.267717,144 L54.992126,144 Z" id="path-1"></path>
        <filter x="-5.1%" y="-3.7%" width="109.5%" height="108.8%" filterUnits="objectBoundingBox" id="filter-2">
            <feOffset dx="-1" dy="2" in="SourceAlpha" result="shadowOffsetOuter1"></feOffset>
            <feGaussianBlur stdDeviation="4" in="shadowOffsetOuter1" result="shadowBlurOuter1"></feGaussianBlur>
            <feColorMatrix values="0 0 0 0 0   0 0 0 0 0   0 0 0 0 0  0 0 0 0.5 0" type="matrix" in="shadowBlurOuter1" result="shadowMatrixOuter1"></feColorMatrix>
            <feOffset dx="0" dy="-1" in="SourceAlpha" result="shadowOffsetOuter2"></feOffset>
            <feGaussianBlur stdDeviation="2" in="shadowOffsetOuter2" result="shadowBlurOuter2"></feGaussianBlur>
            <feColorMatrix values="0 0 0 0 0   0 0 0 0 0   0 0 0 0 0  0 0 0 0.5 0" type="matrix" in="shadowBlurOuter2" result="shadowMatrixOuter2"></feColorMatrix>
            <feMerge>
                <feMergeNode in="shadowMatrixOuter1"></feMergeNode>
                <feMergeNode in="shadowMatrixOuter2"></feMergeNode>
            </feMerge>
        </filter>
    </defs>
    <g id="Release-3---P" stroke="none" stroke-width="1" fill="none" fill-rule="evenodd">
        <g id="TAKE-A-SELFIE" transform="translate(-33.000000, -126.000000)" fill-rule="nonzero">
            <g id="Combined-Shape">
                <use fill="black" fill-opacity="1" filter="url(#filter-2)" xlink:href="#path-1"></use>
                <use fill="#FFFFFF" xlink:href="#path-1"></use>
            </g>
        </g>
    </g>
</svg>