<?xml version="1.0" encoding="UTF-8"?>
<svg width="45px" height="35px" viewBox="0 0 45 35" version="1.1" xmlns="http://www.w3.org/2000/svg" xmlns:xlink="http://www.w3.org/1999/xlink">
    <!-- Generator: Sketch 52.6 (67491) - http://www.bohemiancoding.com/sketch -->
    <title>ic_tree</title>
    <desc>Created with Sketch.</desc>
    <g id="Release-3---P" stroke="none" stroke-width="1" fill="none" fill-rule="evenodd">
        <g id="TREE-GALLERY" transform="translate(-263.000000, -540.000000)">
            <g id="Tree-Gallery" transform="translate(223.000000, 535.000000)">
                <g id="ic_tree" transform="translate(40.000000, 0.000000)">
                    <g id="icon" transform="translate(1.000000, 6.897059)">
                        <path d="M16.3512183,1.39802481 C17.6894711,0.560862144 19.2714313,0.07739001 20.9659815,0.07739001 C25.7816965,0.07739001 29.6852902,3.98224754 29.6852902,8.80128099 C29.6852902,13.6203144 25.7816965,17.5265981 20.9659815,17.5265981 C16.1516918,17.5265981 12.248098,13.6203144 12.248098,8.80128099 C12.248098,7.6303942 12.4789787,6.51370192 12.8965592,5.49256314" id="Stroke-1" stroke="#000000" stroke-width="2.1875" stroke-linecap="round"></path>
                        <path d="M20.9665516,8.8014236 L20.9665516,31.4775502" id="Stroke-3" stroke="#000000" stroke-width="2.1875" stroke-linecap="round"></path>
                        <path d="M20.9585705,27.4367786 L23.7861463,24.0681615" id="Stroke-5" stroke="#000000" stroke-width="2.1875" stroke-linecap="round"></path>
                        <path d="M28.9062817,22.0979056 C28.9062817,23.6823821 27.6221861,24.9673626 26.0388007,24.9673626 C24.4554152,24.9673626 23.1713196,23.6823821 23.1713196,22.0979056 C23.1713196,20.5134291 24.4554152,19.2284486 26.0388007,19.2284486 C27.6221861,19.2284486 28.9062817,20.5134291 28.9062817,22.0979056 Z" id="Stroke-7" stroke="#000000" stroke-width="2.1875" stroke-linecap="round"></path>
                        <path d="M20.9624186,15.5476426 L18.2559839,12.1105693" id="Stroke-9" stroke="#000000" stroke-width="2.1875" stroke-linecap="round"></path>
                        <path d="M40.6204834,13.4811201 L35.4555971,13.4811201 L37.0860137,6.38734313 L38.2133385,6.04078346 C39.6955355,6.58272862 40.1558717,10.9639274 40.6204834,13.4811201" id="Fill-11" fill="#000000"></path>
                        <polygon id="Fill-13" fill="#000000" points="41.9859574 18.6662518 34.1488409 18.6662518 35.4557396 13.4821184 40.6206259 13.4821184"></polygon>
                        <polygon id="Fill-15" fill="#000000" points="42.6195966 23.8523818 33.0722528 23.8523818 33.8518314 18.6682484 41.9853873 18.6682484"></polygon>
                        <path d="M41.6333655,23.6517194 L34.0770114,23.6517194 C33.2660786,23.6517194 32.6674991,22.9357813 32.8513485,22.1884675 L36.6537538,6.7729799 C37.0271534,5.25553344 39.1934413,5.28548304 39.5255104,6.81433887 L42.8661544,22.2198433 C43.0257756,22.9586001 42.4300464,23.6517194 41.6333655,23.6517194 Z" id="Stroke-17" stroke="#000000" stroke-width="2.1875" stroke-linecap="round"></path>
                        <path d="M37.8550459,31.4685653 L37.8550459,23.6845214" id="Stroke-19" stroke="#000000" stroke-width="2.1875" stroke-linecap="round"></path>
                        <path d="M7.92450095,13.4879657 L2.75961458,13.4879657 L4.39003125,6.39418875 L5.51735606,6.04762908 C6.99955303,6.58957425 7.4598892,10.9707731 7.92450095,13.4879657" id="Fill-21" fill="#000000"></path>
                        <polygon id="Fill-23" fill="#000000" points="9.29011742 18.6730974 1.45300095 18.6730974 2.75989962 13.488964 7.92478598 13.488964"></polygon>
                        <polygon id="Fill-25" fill="#000000" points="9.92361411 23.8592274 0.37627036 23.8592274 1.15584896 18.675094 9.28940483 18.675094"></polygon>
                        <path d="M8.93738305,23.6585651 L1.38102888,23.6585651 C0.570096117,23.6585651 -0.028483428,22.942627 0.155366004,22.1953131 L3.95777131,6.77982552 C4.33117093,5.26237906 6.49745881,5.29232866 6.82952794,6.8211845 L10.1701719,22.2266889 C10.3297931,22.9654457 9.73406392,23.6585651 8.93738305,23.6585651 Z" id="Stroke-27" stroke="#000000" stroke-width="2.1875" stroke-linecap="round"></path>
                        <path d="M5.15906345,31.475411 L5.15906345,23.691367" id="Stroke-29" stroke="#000000" stroke-width="2.1875" stroke-linecap="round"></path>
                    </g>
                    <polygon id="frame" points="0 0 46 0 46 45.3235294 0 45.3235294"></polygon>
                </g>
            </g>
        </g>
    </g>
</svg>