<?xml version="1.0" encoding="UTF-8"?>
<svg width="77px" height="77px" viewBox="0 0 77 77" version="1.1" xmlns="http://www.w3.org/2000/svg" xmlns:xlink="http://www.w3.org/1999/xlink">
    <!-- Generator: Sketch 52.6 (67491) - http://www.bohemiancoding.com/sketch -->
    <title>ic_sync</title>
    <desc>Created with Sketch.</desc>
    <g id="Release-2---P" stroke="none" stroke-width="1" fill="none" fill-rule="evenodd">
        <g id="UPLOAD-INTO-GALLERY" transform="translate(-6.000000, -151.000000)">
            <g id="ic_sync" transform="translate(6.000000, 151.000000)">
                <circle id="Oval-4" fill="#AED581" fill-rule="nonzero" cx="38.5" cy="38.5" r="38.5"></circle>
                <path d="M39,21 C32.4975,21 26.85,24.69 24.0375,30.09 C17.265,30.81 12,36.5475 12,43.5 C12,50.9475 18.0525,57 25.5,57 L54.75,57 C60.96,57 66,51.96 66,45.75 C66,39.81 61.3875,34.995 55.5375,34.59 C54.0075,26.8275 47.19,21 39,21 Z" id="Shape-2" fill="#000000"></path>
                <path d="M48.466288,33.5 L42.9325761,39 L47.0828601,39 C47.0828601,43.55125 43.3614388,47.25 38.7822921,47.25 C37.3850299,47.25 36.056939,46.90625 34.9086938,46.2875 L32.8888889,48.295 C34.5905053,49.3675 36.6103102,50 38.7822921,50 C44.8970438,50 49.849716,45.0775 49.849716,39 L54,39 L48.466288,33.5 L48.466288,33.5 Z M30.9171399,39 C30.9171399,34.44875 34.6385612,30.75 39.2177079,30.75 C40.6149701,30.75 41.943061,31.09375 43.0913062,31.7125 L45.1111111,29.705 C43.4094947,28.6325 41.3896898,28 39.2177079,28 C33.1029562,28 28.150284,32.9225 28.150284,39 L24,39 L29.533712,44.5 L35.0674239,39 L30.9171399,39 L30.9171399,39 Z" id="Fill-164" fill="#AED581"></path>
            </g>
        </g>
    </g>
</svg>