<?xml version="1.0" encoding="UTF-8"?>
<svg width="85px" height="85px" viewBox="0 0 85 85" version="1.1" xmlns="http://www.w3.org/2000/svg" xmlns:xlink="http://www.w3.org/1999/xlink">
    <!-- Generator: Sketch 52.6 (67491) - http://www.bohemiancoding.com/sketch -->
    <title>ic_camera</title>
    <desc>Created with Sketch.</desc>
    <defs>
        <circle id="path-1" cx="38.5" cy="38.5" r="38.5"></circle>
        <filter x="-9.1%" y="-6.5%" width="118.2%" height="118.2%" filterUnits="objectBoundingBox" id="filter-2">
            <feOffset dx="0" dy="2" in="SourceAlpha" result="shadowOffsetOuter1"></feOffset>
            <feGaussianBlur stdDeviation="2" in="shadowOffsetOuter1" result="shadowBlurOuter1"></feGaussianBlur>
            <feColorMatrix values="0 0 0 0 0   0 0 0 0 0   0 0 0 0 0  0 0 0 0.5 0" type="matrix" in="shadowBlurOuter1"></feColorMatrix>
        </filter>
    </defs>
    <g id="Release-3---P" stroke="none" stroke-width="1" fill="none" fill-rule="evenodd">
        <g id="TAKE-A-SELFIE" transform="translate(-138.000000, -505.000000)">
            <g id="ic_camera" transform="translate(142.000000, 507.000000)">
                <g id="Oval-6" opacity="0.8578125" fill-rule="nonzero">
                    <use fill="black" fill-opacity="1" filter="url(#filter-2)" xlink:href="#path-1"></use>
                    <use fill="#FFFFFF" xlink:href="#path-1"></use>
                </g>
                <g id="Fill-329-+-Fill-330" transform="translate(13.000000, 15.000000)" fill="#000000">
                    <path d="M25.5865366,18.0609214 C30.0686829,18.0609214 33.7036098,21.6324661 33.7036098,26.0392412 C33.7036098,30.4447696 30.0686829,34.017561 25.5865366,34.017561 C21.103122,34.017561 17.4694634,30.4447696 17.4694634,26.0392412 C17.4694634,21.6324661 21.103122,18.0609214 25.5865366,18.0609214" id="Fill-329"></path>
                    <path d="M17.9767805,1.10699187 L13.3348293,6.09344173 L5.29385366,6.09344173 C2.50360976,6.09344173 0.220682927,8.33734417 0.220682927,11.0798916 L0.220682927,40.9985908 C0.220682927,43.7411382 2.50360976,45.9850407 5.29385366,45.9850407 L45.8792195,45.9850407 C48.6694634,45.9850407 50.9523902,43.7411382 50.9523902,40.9985908 L50.9523902,11.0798916 C50.9523902,8.33734417 48.6694634,6.09344173 45.8792195,6.09344173 L37.8382439,6.09344173 L33.1962927,1.10699187 L17.9767805,1.10699187 L17.9767805,1.10699187 Z M25.5865366,38.5053659 C18.585561,38.5053659 12.9036098,32.920542 12.9036098,26.0392412 C12.9036098,19.1579404 18.585561,13.5731165 25.5865366,13.5731165 C32.5875122,13.5731165 38.2694634,19.1579404 38.2694634,26.0392412 C38.2694634,32.920542 32.5875122,38.5053659 25.5865366,38.5053659 L25.5865366,38.5053659 Z" id="Fill-330"></path>
                </g>
            </g>
        </g>
    </g>
</svg>