<?xml version="1.0" encoding="UTF-8"?>
<svg width="146px" height="122px" viewBox="0 0 146 122" version="1.1" xmlns="http://www.w3.org/2000/svg" xmlns:xlink="http://www.w3.org/1999/xlink">
    <!-- Generator: Sketch 52.6 (67491) - http://www.bohemiancoding.com/sketch -->
    <title>ic_person_walk_trees</title>
    <desc>Created with Sketch.</desc>
    <g id="Release-4---N" stroke="none" stroke-width="1" fill="none" fill-rule="evenodd">
        <g id="OUT-OF-RANGE" transform="translate(-106.000000, -364.000000)">
            <g id="ic_person_walk_trees" transform="translate(106.000000, 365.000000)">
                <g id="ic_tree" transform="translate(50.000000, 0.000000)">
                    <polygon id="Rectangle-6" points="0 36 99 36 99 135 0 135"></polygon>
                    <polygon id="frame" points="0 36 99 36 99 135 0 135"></polygon>
                    <g id="icon" transform="translate(2.000000, 51.000000)">
                        <path d="M35.3642628,3.01514305 C38.2586236,1.20962059 41.6800724,0.166908305 45.3450298,0.166908305 C55.7604134,0.166908305 64.2030696,8.58857864 64.2030696,18.9818672 C64.2030696,29.3751558 55.7604134,37.7999019 45.3450298,37.7999019 C34.9327287,37.7999019 26.4900724,29.3751558 26.4900724,18.9818672 C26.4900724,16.4565964 26.989419,14.0482079 27.8925582,11.8459011" id="Stroke-1" stroke="#FFFFFF" stroke-width="2.1875" stroke-linecap="round"></path>
                        <path d="M45.3462628,18.9821748 L45.3462628,67.8881494" id="Stroke-3" stroke="#FFFFFF" stroke-width="2.1875" stroke-linecap="round"></path>
                        <path d="M45.3290014,59.1733508 L51.444456,51.9081991" id="Stroke-5" stroke="#FFFFFF" stroke-width="2.1875" stroke-linecap="round"></path>
                        <path d="M62.5182372,47.6589158 C62.5182372,51.0761823 59.7410071,53.8475209 56.3164759,53.8475209 C52.8919446,53.8475209 50.1147145,51.0761823 50.1147145,47.6589158 C50.1147145,44.2416493 52.8919446,41.4703107 56.3164759,41.4703107 C59.7410071,41.4703107 62.5182372,44.2416493 62.5182372,47.6589158 Z" id="Stroke-7" stroke="#FFFFFF" stroke-width="2.1875" stroke-linecap="round"></path>
                        <path d="M45.3373239,33.531856 L39.4838722,26.1190636" id="Stroke-9" stroke="#FFFFFF" stroke-width="2.1875" stroke-linecap="round"></path>
                        <path d="M87.8536037,29.0749531 L76.6830355,29.0749531 L80.2092855,13.7756878 L82.6474531,13.0282569 C85.8531349,14.1970789 86.8487457,23.6460823 87.8536037,29.0749531" id="Fill-11" fill="#FFFFFF"></path>
                        <polygon id="Fill-13" fill="#FFFFFF" points="90.8068381 40.2578117 73.8567955 40.2578117 76.6833437 29.0771061 87.8539119 29.0771061"></polygon>
                        <polygon id="Fill-15" fill="#FFFFFF" points="92.177267 51.4428233 71.5283608 51.4428233 73.2144261 40.2621178 90.8056051 40.2621178"></polygon>
                        <path d="M90.0442557,51.0100516 L73.7014432,51.0100516 C71.9475653,51.0100516 70.6529631,49.4659762 71.0505909,47.8542321 L79.2743977,14.6073969 C80.081983,11.3346953 84.7672102,11.3992881 85.4854062,14.6965965 L92.7105199,47.9219008 C93.0557472,49.5151897 91.7673097,51.0100516 90.0442557,51.0100516 Z" id="Stroke-17" stroke="#FFFFFF" stroke-width="2.1875" stroke-linecap="round"></path>
                        <path d="M81.8725412,67.8687715 L81.8725412,51.0807961" id="Stroke-19" stroke="#FFFFFF" stroke-width="2.1875" stroke-linecap="round"></path>
                        <path d="M17.1390369,29.0897171 L5.96846875,29.0897171 L9.49471875,13.7904519 L11.9328864,13.0430209 C15.1385682,14.211843 16.134179,23.6608464 17.1390369,29.0897171" id="Fill-21" fill="#FFFFFF"></path>
                        <polygon id="Fill-23" fill="#FFFFFF" points="20.0925795 40.2725757 3.14253693 40.2725757 5.96908523 29.0918702 17.1396534 29.0918702"></polygon>
                        <polygon id="Fill-25" fill="#FFFFFF" points="21.4627003 51.4575874 0.813794034 51.4575874 2.49985937 40.2768819 20.0910384 40.2768819"></polygon>
                        <path d="M19.3296889,51.0248157 L2.98687642,51.0248157 C1.23299858,51.0248157 -0.0616036932,49.4807403 0.336024148,47.8689962 L8.55983097,14.622161 C9.36741619,11.3494593 14.0526435,11.4140521 14.7708395,14.7113606 L21.9959531,47.9366648 C22.3411804,49.5299538 21.0527429,51.0248157 19.3296889,51.0248157 Z" id="Stroke-27" stroke="#FFFFFF" stroke-width="2.1875" stroke-linecap="round"></path>
                        <path d="M11.1579744,67.8835356 L11.1579744,51.0955602" id="Stroke-29" stroke="#FFFFFF" stroke-width="2.1875" stroke-linecap="round"></path>
                    </g>
                    <g id="sun" transform="translate(49.000000, 0.000000)" fill="#FFFFFF" stroke="#FFFFFF">
                        <ellipse id="base" stroke-width="3.5" cx="22" cy="22.5" rx="10.25" ry="9.75"></ellipse>
                        <path d="M21.5179926,0.478926953 C21.5179926,0.2144229 21.74158,4.26325641e-14 22,4.26325641e-14 C22.2662053,4.26325641e-14 22.4820074,0.217224776 22.4820074,0.478926953 L22.4820074,5.62451627 C22.4820074,5.88902032 22.25842,6.10344322 22,6.10344322 C21.7337947,6.10344322 21.5179926,5.88621845 21.5179926,5.62451627 L21.5179926,0.478926953 Z M34.2935152,4.30576934 C34.4489868,4.09178107 34.7559075,4.04973068 34.9649736,4.20162612 C35.1803382,4.35809769 35.2272442,4.66068149 35.0734196,4.872403 L32.0489181,9.0352722 C31.8934465,9.24926047 31.5865258,9.29131086 31.3774597,9.13941541 C31.1620951,8.98294385 31.1151891,8.68036005 31.2690137,8.46863854 L34.2935152,4.30576934 Z M42.3733329,14.8912064 C42.6248912,14.8094702 42.8979118,14.9558541 42.977768,15.2016261 C43.0600299,15.4548024 42.9201234,15.7271685 42.6712298,15.8080389 L37.7774836,17.3981135 C37.5259253,17.4798497 37.2529047,17.3334658 37.1730485,17.0876938 C37.0907865,16.8345175 37.2306931,16.5621514 37.4795866,16.481281 L42.3733329,14.8912064 Z M42.6712298,28.1919611 C42.9227881,28.2736973 43.0576241,28.5526019 42.977768,28.7983739 C42.895506,29.0515502 42.6222265,29.189664 42.3733329,29.1087936 L37.4795866,27.518719 C37.2280283,27.4369828 37.0931924,27.1580782 37.1730485,26.9123062 C37.2553105,26.6591299 37.52859,26.5210161 37.7774836,26.6018865 L42.6712298,28.1919611 Z M35.0734196,39.127597 C35.2288912,39.3415853 35.1740398,39.6464784 34.9649736,39.7983739 C34.749609,39.9548454 34.4473399,39.9059522 34.2935152,39.6942307 L31.2690137,35.5313615 C31.1135422,35.3173732 31.1683935,35.01248 31.3774597,34.8605846 C31.5928243,34.704113 31.8950934,34.7530063 32.0489181,34.9647278 L35.0734196,39.127597 Z M22.4820074,43.521073 C22.4820074,43.7855771 22.25842,44 22,44 C21.7337947,44 21.5179926,43.7827752 21.5179926,43.521073 L21.5179926,38.3754837 C21.5179926,38.1109797 21.74158,37.8965568 22,37.8965568 C22.2662053,37.8965568 22.4820074,38.1137816 22.4820074,38.3754837 L22.4820074,43.521073 Z M9.70648475,39.6942307 C9.55101317,39.9082189 9.24409254,39.9502693 9.03502639,39.7983739 C8.81966176,39.6419023 8.77275575,39.3393185 8.92658043,39.127597 L11.9510819,34.9647278 C12.1065535,34.7507395 12.4134742,34.7086891 12.6225403,34.8605846 C12.8379049,35.0170561 12.8848109,35.3196399 12.7309863,35.5313615 L9.70648475,39.6942307 Z M1.62666711,29.1087936 C1.37510881,29.1905298 1.1020882,29.0441459 1.02223204,28.7983739 C0.939970068,28.5451976 1.0798766,28.2728315 1.32877017,28.1919611 L6.22251641,26.6018865 C6.47407472,26.5201503 6.74709532,26.6665342 6.82695148,26.9123062 C6.90921345,27.1654825 6.76930692,27.4378486 6.52041336,27.518719 L1.62666711,29.1087936 Z M1.32877017,15.8080389 C1.07721186,15.7263027 0.942375874,15.4473981 1.02223204,15.2016261 C1.10449401,14.9484498 1.37777355,14.810336 1.62666711,14.8912064 L6.52041336,16.481281 C6.77197166,16.5630172 6.90680765,16.8419218 6.82695148,17.0876938 C6.74468952,17.3408701 6.47140998,17.4789839 6.22251641,17.3981135 L1.32877017,15.8080389 Z M8.92658043,4.872403 C8.77110885,4.65841472 8.82596024,4.35352157 9.03502639,4.20162612 C9.25039102,4.04515456 9.55266007,4.09404783 9.70648475,4.30576934 L12.7309863,8.46863854 C12.8864578,8.68262682 12.8316065,8.98751997 12.6225403,9.13941541 C12.4071757,9.29588698 12.1049066,9.24699371 11.9510819,9.0352722 L8.92658043,4.872403 Z" id="around" stroke-width="2" stroke-linecap="round"></path>
                    </g>
                </g>
                <path d="M13.3835616,79.0739362 L14.3401527,73.6488386 C12.8584717,75.2528683 10.2951926,77.8350138 9.9906385,78.789737 C9.58742682,80.0537341 7.93848921,87.6777064 7.93848921,87.6777064 L7.69471176,87.6436328 C7.3812566,88.5760081 6.50011012,89.2476109 5.46210243,89.2476109 C4.19842984,89.2476109 3.16723618,88.2522503 3.10977059,87.0027783 L3.10724577,87.0024254 C3.10724577,87.0024254 3.10790872,86.998244 3.10921879,86.9900387 C3.10790768,86.9577736 3.10724577,86.9253412 3.10724577,86.8927542 C3.10724577,86.5905682 3.16416514,86.3016764 3.26786747,86.0362153 C3.62239086,83.9618083 4.51158872,79.0726519 5.4059062,76.6318898 C6.55949561,73.4835254 17.1077144,63.5047335 17.7068358,64.1599494 C17.7448687,64.2015432 17.7792844,64.2480334 17.8101729,64.2991798 C18.9274865,63.5913259 20.3017207,63.2817723 21.7039779,63.5290281 C23.2420532,63.8002323 24.5167723,64.6885682 25.3202267,65.8929624 L25.3086383,65.6990444 C25.3086383,65.6990444 30.9560416,76.5307619 31.4674958,77.0160917 C31.9789501,77.5014214 39.2150478,82.5738237 39.2150478,82.5738237 L39.1356562,82.7146982 C39.663267,83.1465462 40,83.8028978 40,84.5378976 C40,85.838449 38.9456948,86.8927542 37.6451433,86.8927542 C37.3687845,86.8927542 37.1035445,86.8451486 36.8571766,86.7576906 L36.7810597,86.8927542 C36.7810597,86.8927542 28.070048,81.783254 27.0883792,80.5132034 C26.1067105,79.2431528 25.0859079,76.025527 25.0859079,76.025527 L25.0876076,75.9820283 L23.8432428,83.0391717 C23.7632066,83.4930795 23.6293757,83.9240344 23.4494806,84.3266828 L22.7504632,87.7348201 L32.2235845,99.5450065 C33.0443165,100.624432 33.6504278,102.852206 33.6504278,102.852206 L36.0752389,115.719799 L35.9505329,115.735643 C36.0319334,116.050487 36.0752389,116.380655 36.0752389,116.720938 C36.0752389,118.888524 34.3180635,120.6457 32.1504778,120.6457 C29.9828921,120.6457 28.2257167,118.888524 28.2257167,116.720938 C28.2257167,116.719656 28.2257174,116.718373 28.2257186,116.717091 L28.1954332,116.720938 C28.1954332,116.720938 26.211537,105.197977 26.0040225,104.07406 C25.7965081,102.950144 25.4533262,102.856085 24.7216171,102.037 C23.989908,101.217916 17.8964556,94.3271123 17.8964556,94.3271123 L17.6808953,93.2444597 C17.00517,96.8738175 16.281965,100.545161 15.7512838,102.683805 C15.7215806,103.335982 15.5280544,103.990648 15.1558377,104.586319 L7.25405595,117.231813 C6.10500101,119.070685 3.67959829,119.627887 1.84512177,118.481579 C0.00690485201,117.332934 -0.556740431,114.919025 0.597283609,113.0722 L8.24157585,100.838775 C8.71594864,99.7547175 9.13339664,98.3458049 9.13339664,98.3458049 L13.3280881,79.0432321 L13.3835616,79.0739362 Z M23.1235273,61.7742833 C19.8721488,61.7742833 17.2363857,59.1385202 17.2363857,55.8871416 C17.2363857,52.6357631 19.8721488,50 23.1235273,50 C26.3749059,50 29.010669,52.6357631 29.010669,55.8871416 C29.010669,59.1385202 26.3749059,61.7742833 23.1235273,61.7742833 Z" id="Oval-6" fill="#FFFFFF"></path>
            </g>
        </g>
    </g>
</svg>