<?xml version="1.0" encoding="UTF-8"?>
<svg width="91px" height="72px" viewBox="0 0 91 72" version="1.1" xmlns="http://www.w3.org/2000/svg" xmlns:xlink="http://www.w3.org/1999/xlink">
    <!-- Generator: Sketch 52.6 (67491) - http://www.bohemiancoding.com/sketch -->
    <title>ic_woodenhouse</title>
    <desc>Created with Sketch.</desc>
    <g id="Release-4---N" stroke="none" stroke-width="1" fill="none" fill-rule="evenodd">
        <g id="MAP-W/-FILTER" transform="translate(-27.000000, -319.000000)">
            <g id="Filter" transform="translate(0.000000, 70.000000)">
                <g id="ic_woodenhouse" transform="translate(24.000000, 236.000000)">
                    <polygon id="frame" points="0 0 96 0 96 96 0 96"></polygon>
                    <g id="icon" transform="translate(4.000000, 14.000000)">
                        <path d="M34.1291894,45.3401838 L14.9060452,45.3401838 C11.6323,45.3401838 8.95459808,42.6559926 8.95459808,39.3743137 C8.95459808,36.0926348 11.6323,33.4084436 14.9060452,33.4084436 L73.8813817,33.4084436 C77.1551269,33.4084436 79.8328288,36.0926348 79.8328288,39.3743137 C79.8328288,42.6559926 77.1551269,45.3401838 73.8813817,45.3401838 L55.2632663,45.3401838" id="Stroke-1" stroke="#FFFFFF" stroke-width="2.1875" stroke-linecap="round"></path>
                        <path d="M79.8172538,39.36981 C79.8172538,42.6604963 77.1545279,45.3296752 73.8717971,45.3296752 C70.5890663,45.3296752 67.9263404,42.6604963 67.9263404,39.36981 C67.9263404,36.0791238 70.5890663,33.4099449 73.8717971,33.4099449 C77.1545279,33.4099449 79.8172538,36.0791238 79.8172538,39.36981 Z" id="Stroke-3" stroke="#FFFFFF" stroke-width="2.1875" stroke-linecap="round"></path>
                        <path d="M20.8715697,39.3830208 C20.8715697,42.6737071 18.2088438,45.342886 14.926113,45.342886 C11.6433822,45.342886 8.98065625,42.6737071 8.98065625,39.3830208 C8.98065625,36.0923346 11.6433822,33.4231556 14.926113,33.4231556 C18.2088438,33.4231556 20.8715697,36.0923346 20.8715697,39.3830208 Z" id="Stroke-5" stroke="#FFFFFF" stroke-width="2.1875" stroke-linecap="round"></path>
                        <path d="M34.1884942,57.319663 L14.9054462,57.319663 C11.631701,57.319663 8.95399904,54.6354718 8.95399904,51.3537929 C8.95399904,48.072114 11.631701,45.3879228 14.9054462,45.3879228 L28.281975,45.3879228" id="Stroke-7" stroke="#FFFFFF" stroke-width="2.1875" stroke-linecap="round"></path>
                        <path d="M56.4301933,45.3888235 L73.8831788,45.3888235 C77.156924,45.3888235 79.834626,48.0730147 79.834626,51.3546936 C79.834626,54.6363725 77.156924,57.3205637 73.8831788,57.3205637 L55.0104721,57.3205637" id="Stroke-9" stroke="#FFFFFF" stroke-width="2.1875" stroke-linecap="round"></path>
                        <path d="M79.8172538,51.3492892 C79.8172538,54.6399755 77.1545279,57.3091544 73.8717971,57.3091544 C70.5890663,57.3091544 67.9263404,54.6399755 67.9263404,51.3492892 C67.9263404,48.0586029 70.5890663,45.389424 73.8717971,45.389424 C77.1545279,45.389424 79.8172538,48.0586029 79.8172538,51.3492892 Z" id="Stroke-11" stroke="#FFFFFF" stroke-width="2.1875" stroke-linecap="round"></path>
                        <path d="M20.8715697,51.3625 C20.8715697,54.6531863 18.2088438,57.3223652 14.926113,57.3223652 C11.6433822,57.3223652 8.98065625,54.6531863 8.98065625,51.3625 C8.98065625,48.0718137 11.6433822,45.4026348 14.926113,45.4026348 C18.2088438,45.4026348 20.8715697,48.0718137 20.8715697,51.3625 Z" id="Stroke-13" stroke="#FFFFFF" stroke-width="2.1875" stroke-linecap="round"></path>
                        <polygon id="Fill-15" fill="#FFFFFF" points="82.319138 18.1725061 7.46029663 18.1725061 11.1353976 10.5492831 78.7848111 10.5492831"></polygon>
                        <polygon id="Fill-17" fill="#FFFFFF" points="85.1175462 25.7912255 2.21661346 25.7912255 7.46119519 18.1680025 82.3200365 18.1680025"></polygon>
                        <polygon id="Fill-19" fill="#FFFFFF" points="87.4534966 33.415049 1.32674183 33.415049 2.21930913 25.791826 87.4534966 25.791826"></polygon>
                        <path d="M59.5637635,57.3250674 L73.8837779,57.3250674 C77.1545279,57.3250674 79.835225,60.0092586 79.835225,63.2909375 C79.835225,66.5726164 77.1545279,69.2568076 73.8837779,69.2568076 L14.9054462,69.2568076 C11.631701,69.2568076 8.95399904,66.5726164 8.95399904,63.2909375 C8.95399904,60.0092586 11.631701,57.3250674 14.9054462,57.3250674 L28.6653596,57.3250674" id="Stroke-21" stroke="#FFFFFF" stroke-width="2.1875" stroke-linecap="round"></path>
                        <path d="M79.8172538,63.2855331 C79.8172538,66.5762194 77.1545279,69.2453983 73.8717971,69.2453983 C70.5890663,69.2453983 67.9263404,66.5762194 67.9263404,63.2855331 C67.9263404,59.9948468 70.5890663,57.3256679 73.8717971,57.3256679 C77.1545279,57.3256679 79.8172538,59.9948468 79.8172538,63.2855331 Z" id="Stroke-23" stroke="#FFFFFF" stroke-width="2.1875" stroke-linecap="round"></path>
                        <path d="M20.8715697,63.2987439 C20.8715697,66.5894301 18.2088438,69.2586091 14.926113,69.2586091 C11.6433822,69.2586091 8.98065625,66.5894301 8.98065625,63.2987439 C8.98065625,60.0080576 11.6433822,57.3388787 14.926113,57.3388787 C18.2088438,57.3388787 20.8715697,60.0080576 20.8715697,63.2987439 Z" id="Stroke-25" stroke="#FFFFFF" stroke-width="2.1875" stroke-linecap="round"></path>
                        <path d="M87.4606851,33.4045404 L1.3279399,33.4045404 C0.450348558,33.4045404 -0.13071875,32.5518444 0.243680288,31.8072365 L10.7598005,10.9371998 C10.9574832,10.5468811 11.3798053,10.2946752 11.8440601,10.2946752 L77.6873726,10.2946752 C78.1636082,10.2946752 78.5949159,10.5588909 78.783613,10.9672243 L88.5569255,31.837261 C88.9043678,32.575864 88.3233005,33.4045404 87.4606851,33.4045404 Z" id="Stroke-27" stroke="#FFFFFF" stroke-width="2.1875" stroke-linecap="round"></path>
                        <path d="M27.7251687,10.3087868 L20.0454957,10.3087868 C19.3865534,10.3087868 18.8474187,9.76834559 18.8474187,9.10780637 L18.8474187,1.32845588 C18.8474187,0.667916667 19.3865534,0.12747549 20.0454957,0.12747549 L27.7251687,0.12747549 C28.3841111,0.12747549 28.9232457,0.667916667 28.9232457,1.32845588 L28.9232457,9.10780637 C28.9232457,9.76834559 28.3841111,10.3087868 27.7251687,10.3087868 Z" id="Stroke-29" stroke="#FFFFFF" stroke-width="2.1875" stroke-linecap="round"></path>
                        <path d="M54.6321793,46.3168811 L54.6321793,43.8278493 C54.6321793,42.5698223 53.6048284,41.5399816 52.3468476,41.5399816 L36.4393813,41.5399816 C35.1843957,41.5399816 34.1570447,42.5698223 34.1570447,43.8278493 L34.1570447,69.1204963 C34.1570447,69.1625306 34.1899918,69.19856 34.2349197,69.19856 L54.5572995,69.19856 C54.5992322,69.19856 54.6321793,69.1625306 54.6321793,69.1204963 L54.6321793,56.1469056" id="Stroke-31" stroke="#FFFFFF" stroke-width="2.1875" stroke-linecap="round"></path>
                        <path d="M56.1546356,51.3898223 C56.1546356,52.2154963 55.4867077,52.8820404 54.666025,52.8820404 C53.8423471,52.8820404 53.1774144,52.2154963 53.1774144,51.3898223 C53.1774144,50.5641483 53.8423471,49.8976042 54.666025,49.8976042 C55.4867077,49.8976042 56.1546356,50.5641483 56.1546356,51.3898223" id="Fill-33" fill="#FFFFFF"></path>
                    </g>
                </g>
            </g>
        </g>
    </g>
</svg>