<?xml version="1.0" encoding="UTF-8"?>
<svg width="77px" height="77px" viewBox="0 0 77 77" version="1.1" xmlns="http://www.w3.org/2000/svg" xmlns:xlink="http://www.w3.org/1999/xlink">
    <!-- Generator: Sketch 52.6 (67491) - http://www.bohemiancoding.com/sketch -->
    <title>ic_camera_map</title>
    <desc>Created with Sketch.</desc>
    <g id="Release-2---P" stroke="none" stroke-width="1" fill="none" fill-rule="evenodd">
        <g id="UPLOAD-INTO-GALLERY" transform="translate(-142.000000, -507.000000)">
            <g id="ic_camera_map" transform="translate(142.000000, 507.000000)">
                <circle id="Oval" fill="#AED581" cx="38.5" cy="38.5" r="38.5"></circle>
                <g id="Fill-329-+-Fill-330" transform="translate(13.030769, 14.215385)" fill="#000000">
                    <path d="M25.4769231,16 C30.7099615,16 34.9538462,20.2424038 34.9538462,25.4769231 C34.9538462,30.7099615 30.7099615,34.9538462 25.4769231,34.9538462 C20.2424038,34.9538462 16,30.7099615 16,25.4769231 C16,20.2424038 20.2424038,16 25.4769231,16" id="Fill-329"></path>
                    <path d="M18.2430769,0 L13.4738154,5.13333333 L5.21230769,5.13333333 C2.34553846,5.13333333 0,7.44333333 0,10.2666667 L0,41.0666667 C0,43.89 2.34553846,46.2 5.21230769,46.2 L46.9107692,46.2 C49.7775385,46.2 52.1230769,43.89 52.1230769,41.0666667 L52.1230769,10.2666667 C52.1230769,7.44333333 49.7775385,5.13333333 46.9107692,5.13333333 L38.6492615,5.13333333 L33.88,0 L18.2430769,0 L18.2430769,0 Z M25.4823932,38.115 C18.4492526,38.115 12.7411966,32.42316 12.7411966,25.41 C12.7411966,18.39684 18.4492526,12.705 25.4823932,12.705 C32.5155337,12.705 38.2235897,18.39684 38.2235897,25.41 C38.2235897,32.42316 32.5155337,38.115 25.4823932,38.115 L25.4823932,38.115 Z" id="Fill-330"></path>
                </g>
            </g>
        </g>
    </g>
</svg>